<svg width="36" height="36" viewBox="0 0 36 36" fill="none" xmlns="http://www.w3.org/2000/svg">
<path d="M25.9976 35.5002C26.4623 35.5029 26.923 35.413 27.3527 35.2357C27.7823 35.0585 28.1724 34.7974 28.5001 34.4677L33.2426 29.7252C33.5685 29.3974 33.7514 28.9538 33.7514 28.4915C33.7514 28.0292 33.5685 27.5856 33.2426 27.2577L26.2426 20.2577C25.9147 19.9318 25.4711 19.7489 25.0088 19.7489C24.5465 19.7489 24.1029 19.9318 23.7751 20.2577L20.9751 23.0402C19.0365 22.5234 17.2411 21.5718 15.7251 20.2577C14.4145 18.7393 13.4634 16.9447 12.9426 15.0077L15.7251 12.2077C16.051 11.8799 16.2339 11.4363 16.2339 10.974C16.2339 10.5117 16.051 10.0681 15.7251 9.74025L8.72506 2.74025C8.39717 2.41431 7.95363 2.23136 7.49131 2.23136C7.02898 2.23136 6.58544 2.41431 6.25756 2.74025L1.53256 7.50025C1.20291 7.82792 0.941838 8.21797 0.764565 8.64763C0.587292 9.07729 0.497374 9.53796 0.500058 10.0027C0.658824 16.7268 3.34569 23.144 8.02506 27.9752C12.8563 32.6546 19.2735 35.3415 25.9976 35.5002ZM7.50006 6.46775L12.0326 11.0002L9.77506 13.2577C9.56124 13.458 9.40113 13.7088 9.30941 13.987C9.21768 14.2653 9.19727 14.5621 9.25006 14.8502C9.90415 17.7734 11.289 20.4829 13.2751 22.7252C15.5157 24.7139 18.2259 26.0991 21.1501 26.7502C21.4339 26.8096 21.728 26.7975 22.0059 26.715C22.2839 26.6325 22.537 26.4823 22.7426 26.2777L25.0001 23.9677L29.5326 28.5002L26.0326 32.0002C20.2291 31.8508 14.6917 29.5347 10.5101 25.5077C6.47265 21.3244 4.14987 15.7797 4.00006 9.96775L7.50006 6.46775ZM32.0001 16.2502H35.5001C35.5454 14.1695 35.1691 12.1011 34.3936 10.1697C33.6182 8.23832 32.4597 6.48393 30.988 5.01226C29.5164 3.5406 27.762 2.38214 25.8306 1.60669C23.8992 0.831243 21.8308 0.454868 19.7501 0.500248V4.00025C21.3739 3.94408 22.9919 4.22252 24.5036 4.81826C26.0152 5.414 27.3882 6.31431 28.5371 7.46322C29.686 8.61213 30.5863 9.98508 31.182 11.4967C31.7778 13.0084 32.0562 14.6264 32.0001 16.2502Z" fill="white"/>
</svg>
