<svg width="70" height="70" viewBox="0 0 70 70" fill="none" xmlns="http://www.w3.org/2000/svg">
<path d="M24.0625 52.5H45.9375V56.875H24.0625V52.5Z" fill="white"/>
<path d="M28.4375 61.25H41.5625V65.625H28.4375V61.25Z" fill="white"/>
<path d="M35.0002 4.375C29.1986 4.375 23.6346 6.67968 19.5323 10.782C15.4299 14.8844 13.1252 20.4484 13.1252 26.25C12.9773 29.4292 13.5863 32.598 14.9021 35.4959C16.218 38.3938 18.203 40.9378 20.694 42.9188C22.8815 44.9531 24.0627 46.1125 24.0627 48.125H28.4377C28.4377 44.1 26.0096 41.8469 23.6471 39.6812C21.6026 38.1156 19.9732 36.0725 18.9015 33.7309C17.8299 31.3893 17.3487 28.8207 17.5002 26.25C17.5002 21.6087 19.344 17.1575 22.6259 13.8756C25.9078 10.5937 30.359 8.75 35.0002 8.75C39.6415 8.75 44.0927 10.5937 47.3746 13.8756C50.6565 17.1575 52.5002 21.6087 52.5002 26.25C52.6492 28.8226 52.1647 31.3924 51.0892 33.7342C50.0137 36.0759 48.38 38.1179 46.3315 39.6812C43.9909 41.8687 41.5627 44.0563 41.5627 48.125H45.9377C45.9377 46.1125 47.0971 44.9531 49.3065 42.8969C51.7957 40.9193 53.7799 38.379 55.0957 35.485C56.4115 32.5909 57.0214 29.4258 56.8752 26.25C56.8752 23.3773 56.3094 20.5328 55.2101 17.8788C54.1108 15.2248 52.4995 12.8133 50.4682 10.782C48.4369 8.75076 46.0254 7.13946 43.3714 6.04014C40.7174 4.94081 37.8729 4.375 35.0002 4.375Z" fill="white"/>
</svg>
