<svg width="45" height="45" viewBox="0 0 45 45" fill="none" xmlns="http://www.w3.org/2000/svg">
<path d="M30.1201 15.5928C30.1201 15.3994 29.9619 15.2412 29.7685 15.2412L26.8681 15.2544L22.5 20.4619L18.1362 15.2588L15.2314 15.2456C15.0381 15.2456 14.8799 15.3994 14.8799 15.5972C14.8799 15.6807 14.9106 15.7598 14.9634 15.8257L20.6807 22.6372L14.9634 29.4443C14.9103 29.5087 14.8808 29.5894 14.8799 29.6729C14.8799 29.8662 15.0381 30.0244 15.2314 30.0244L18.1362 30.0112L22.5 24.8037L26.8638 30.0068L29.7641 30.02C29.9575 30.02 30.1157 29.8662 30.1157 29.6685C30.1157 29.585 30.0849 29.5059 30.0322 29.4399L24.3237 22.6328L30.041 15.8213C30.0937 15.7598 30.1201 15.6763 30.1201 15.5928Z" fill="black"/>
<path d="M22.5 2.85645C11.6279 2.85645 2.8125 11.6719 2.8125 22.5439C2.8125 33.416 11.6279 42.2314 22.5 42.2314C33.3721 42.2314 42.1875 33.416 42.1875 22.5439C42.1875 11.6719 33.3721 2.85645 22.5 2.85645ZM22.5 38.8916C13.4736 38.8916 6.15234 31.5703 6.15234 22.5439C6.15234 13.5176 13.4736 6.19629 22.5 6.19629C31.5264 6.19629 38.8477 13.5176 38.8477 22.5439C38.8477 31.5703 31.5264 38.8916 22.5 38.8916Z" fill="black"/>
</svg>
