<svg width="42" height="42" viewBox="0 0 42 42" fill="none" xmlns="http://www.w3.org/2000/svg">
<path d="M38.7602 16.8984H28.2602C28.0797 16.8984 27.932 17.0461 27.932 17.2266V19.1953C27.932 19.3758 28.0797 19.5234 28.2602 19.5234H38.7602C38.9406 19.5234 39.0883 19.3758 39.0883 19.1953V17.2266C39.0883 17.0461 38.9406 16.8984 38.7602 16.8984ZM33.2641 22.4766H28.2602C28.0797 22.4766 27.932 22.6242 27.932 22.8047V24.7734C27.932 24.9539 28.0797 25.1016 28.2602 25.1016H33.2641C33.4445 25.1016 33.5922 24.9539 33.5922 24.7734V22.8047C33.5922 22.6242 33.4445 22.4766 33.2641 22.4766ZM19.5771 13.2275H17.8012C17.5469 13.2275 17.3418 13.4326 17.3418 13.6869V23.8588C17.3418 24.0064 17.4115 24.1418 17.5305 24.2279L23.6377 28.6822C23.8428 28.8299 24.1299 28.7889 24.2775 28.5838L25.3316 27.1441V27.14C25.4793 26.935 25.4342 26.6479 25.2291 26.5002L20.0324 22.7432V13.6869C20.0365 13.4326 19.8273 13.2275 19.5771 13.2275Z" fill="white"/>
<path d="M33.0094 27.6405H30.6387C30.409 27.6405 30.1916 27.7595 30.0686 27.9563C29.5477 28.7807 28.9406 29.5436 28.2434 30.2409C27.0416 31.4427 25.643 32.386 24.0885 33.0423C22.4766 33.7231 20.7662 34.0677 19.0026 34.0677C17.2348 34.0677 15.5244 33.7231 13.9166 33.0423C12.3621 32.386 10.9635 31.4427 9.76175 30.2409C8.55999 29.0391 7.61663 27.6405 6.96038 26.086C6.27952 24.4782 5.93499 22.7679 5.93499 21.0001C5.93499 19.2323 6.27952 17.5261 6.96038 15.9141C7.61663 14.3596 8.55999 12.961 9.76175 11.7593C10.9635 10.5575 12.3621 9.61414 13.9166 8.95789C15.5244 8.27703 17.2389 7.9325 19.0026 7.9325C20.7703 7.9325 22.4807 8.27703 24.0885 8.95789C25.643 9.61414 27.0416 10.5575 28.2434 11.7593C28.9406 12.4565 29.5477 13.2194 30.0686 14.0438C30.1916 14.2407 30.409 14.3596 30.6387 14.3596H33.0094C33.2924 14.3596 33.4729 14.0643 33.3457 13.8141C30.6715 8.49441 25.2492 5.0368 19.1953 4.96707C10.3319 4.85633 2.96956 12.112 2.95315 20.9673C2.93675 29.8389 10.1268 37.0372 18.9985 37.0372C25.1303 37.0372 30.6428 33.5673 33.3457 28.186C33.4729 27.9358 33.2883 27.6405 33.0094 27.6405Z" fill="white"/>
</svg>
