<svg width="32" height="54" viewBox="0 0 32 54" fill="none" xmlns="http://www.w3.org/2000/svg">
<path d="M7.90852 25.4557C10.6824 23.6296 13.9748 22.755 17.2892 22.9639C20.6035 23.1728 23.7601 24.4539 26.2827 26.6138C28.8053 28.7737 30.5571 31.6953 31.2739 34.938C31.9907 38.1807 31.6336 41.5685 30.2564 44.5905C28.8793 47.6124 26.5568 50.1046 23.6392 51.691C20.7217 53.2775 17.3674 53.8722 14.0824 53.3854C10.7973 52.8987 7.75956 51.3568 5.42744 48.9925C3.09533 46.6282 1.59529 43.5696 1.15361 40.2782C-0.243294 33.4161 -0.786749 25.1686 1.94583 17.7019C4.87742 9.70316 11.3759 3.14344 23.0142 0.0970338C23.9841 -0.125817 25.0026 0.037845 25.8538 0.553325C26.705 1.0688 27.322 1.89555 27.5738 2.85827C27.8257 3.82098 27.6927 4.84394 27.203 5.71024C26.7133 6.57654 25.9055 7.21804 24.9508 7.49872C15.536 9.9634 11.1348 14.8851 9.1332 20.335C8.54 21.9615 8.13815 23.6799 7.90852 25.4557Z" fill="#003D6F" fill-opacity="0.6"/>
</svg>
