<svg width="28" height="42" viewBox="0 0 28 42" fill="none" xmlns="http://www.w3.org/2000/svg">
<path d="M14 7.875C14.3481 7.875 14.6819 8.01328 14.9281 8.25942C15.1742 8.50556 15.3125 8.8394 15.3125 9.1875V14.4375C15.3125 14.7856 15.1742 15.1194 14.9281 15.3656C14.6819 15.6117 14.3481 15.75 14 15.75C13.6519 15.75 13.3181 15.6117 13.0719 15.3656C12.8258 15.1194 12.6875 14.7856 12.6875 14.4375V9.1875C12.6875 8.8394 12.8258 8.50556 13.0719 8.25942C13.3181 8.01328 13.6519 7.875 14 7.875ZM24.5 28.875C24.5 31.6598 23.3938 34.3305 21.4246 36.2996C19.4555 38.2688 16.7848 39.375 14 39.375C11.2152 39.375 8.54451 38.2688 6.57538 36.2996C4.60625 34.3305 3.5 31.6598 3.5 28.875V13.125C3.5 10.3402 4.60625 7.66951 6.57538 5.70038C8.54451 3.73125 11.2152 2.625 14 2.625C16.7848 2.625 19.4555 3.73125 21.4246 5.70038C23.3938 7.66951 24.5 10.3402 24.5 13.125V28.875ZM14 0C10.519 0 7.18064 1.38281 4.71922 3.84422C2.25781 6.30564 0.875 9.64403 0.875 13.125V28.875C0.875 32.356 2.25781 35.6944 4.71922 38.1558C7.18064 40.6172 10.519 42 14 42C17.481 42 20.8194 40.6172 23.2808 38.1558C25.7422 35.6944 27.125 32.356 27.125 28.875V13.125C27.125 9.64403 25.7422 6.30564 23.2808 3.84422C20.8194 1.38281 17.481 0 14 0V0Z" fill="white"/>
</svg>
