<svg width="42" height="42" viewBox="0 0 42 42" fill="none" xmlns="http://www.w3.org/2000/svg">
<path d="M23.1937 3.5H7.14033C6.48436 3.5 5.85525 3.76058 5.39141 4.22442C4.92757 4.68826 4.66699 5.31736 4.66699 5.97333V38.5H25.667V5.97333C25.667 5.31736 25.4064 4.68826 24.9426 4.22442C24.4787 3.76058 23.8496 3.5 23.1937 3.5ZM23.3337 36.1667H19.8337V32.6667H10.5003V36.1667H7.00033V5.97333C7.00033 5.95495 7.00395 5.93674 7.01098 5.91976C7.01802 5.90277 7.02833 5.88734 7.04133 5.87434C7.05433 5.86134 7.06976 5.85103 7.08675 5.84399C7.10374 5.83695 7.12194 5.83333 7.14033 5.83333H23.1937C23.212 5.83333 23.2302 5.83695 23.2472 5.84399C23.2642 5.85103 23.2797 5.86134 23.2927 5.87434C23.3057 5.88734 23.316 5.90277 23.323 5.91976C23.33 5.93674 23.3337 5.95495 23.3337 5.97333V36.1667Z" fill="white"/>
<path d="M9.33301 9.3335H11.6663V11.6668H9.33301V9.3335Z" fill="white"/>
<path d="M14 9.3335H16.3333V11.6668H14V9.3335Z" fill="white"/>
<path d="M18.667 9.3335H21.0003V11.6668H18.667V9.3335Z" fill="white"/>
<path d="M9.33301 15.1665H11.6663V17.4998H9.33301V15.1665Z" fill="white"/>
<path d="M14 15.1665H16.3333V17.4998H14V15.1665Z" fill="white"/>
<path d="M18.667 15.1665H21.0003V17.4998H18.667V15.1665Z" fill="white"/>
<path d="M9.33301 21H11.6663V23.3333H9.33301V21Z" fill="white"/>
<path d="M14 21H16.3333V23.3333H14V21Z" fill="white"/>
<path d="M18.667 21H21.0003V23.3333H18.667V21Z" fill="white"/>
<path d="M9.33301 26.8335H11.6663V29.1668H9.33301V26.8335Z" fill="white"/>
<path d="M14 26.8335H16.3333V29.1668H14V26.8335Z" fill="white"/>
<path d="M18.667 26.8335H21.0003V29.1668H18.667V26.8335Z" fill="white"/>
<path d="M26.833 15.1665H29.1663V17.4998H26.833V15.1665Z" fill="white"/>
<path d="M31.5 15.1665H33.8333V17.4998H31.5V15.1665Z" fill="white"/>
<path d="M26.833 21H29.1663V23.3333H26.833V21Z" fill="white"/>
<path d="M31.5 21H33.8333V23.3333H31.5V21Z" fill="white"/>
<path d="M26.833 26.8335H29.1663V29.1668H26.833V26.8335Z" fill="white"/>
<path d="M31.5 26.8335H33.8333V29.1668H31.5V26.8335Z" fill="white"/>
<path d="M36.1663 15.6685V36.1668H26.833V38.5001H38.4997V15.0151C37.7562 15.3408 36.9708 15.5607 36.1663 15.6685Z" fill="white"/>
<path d="M35.0003 12.8332C38.222 12.8332 40.8337 10.2215 40.8337 6.99984C40.8337 3.77818 38.222 1.1665 35.0003 1.1665C31.7787 1.1665 29.167 3.77818 29.167 6.99984C29.167 10.2215 31.7787 12.8332 35.0003 12.8332Z" fill="white"/>
</svg>
