<svg width="32" height="54" viewBox="0 0 32 54" fill="none" xmlns="http://www.w3.org/2000/svg">
<path d="M23.7262 28.0951C20.9524 29.9212 17.66 30.7957 14.3456 30.5868C11.0312 30.3779 7.87466 29.0969 5.35206 26.937C2.82946 24.7771 1.07764 21.8554 0.360848 18.6128C-0.355941 15.3701 0.00117822 11.9823 1.37834 8.96031C2.7555 5.93836 5.078 3.4462 7.99552 1.85974C10.913 0.27329 14.2673 -0.321408 17.5524 0.165356C20.8375 0.65212 23.8752 2.19395 26.2073 4.55826C28.5394 6.92257 30.0395 9.98114 30.4812 13.2726C31.8781 20.1347 32.4215 28.3821 29.6889 35.8489C26.7573 43.8476 20.2589 50.4073 8.62052 53.4537C7.65067 53.6766 6.63216 53.5129 5.78096 52.9975C4.92976 52.482 4.31281 51.6552 4.06093 50.6925C3.80905 49.7298 3.94206 48.7068 4.43174 47.8405C4.92142 46.9742 5.72927 46.3327 6.68398 46.0521C16.0988 43.5874 20.5 38.6657 22.5016 33.2158C23.0948 31.5893 23.4966 29.8709 23.7262 28.0951Z" fill="#003D6F" fill-opacity="0.6"/>
</svg>
