<svg width="42" height="30" viewBox="0 0 42 30" fill="none" xmlns="http://www.w3.org/2000/svg">
<path d="M39 0H3C2.20435 0 1.44129 0.31607 0.87868 0.87868C0.31607 1.44129 0 2.20435 0 3V27C0 27.7956 0.31607 28.5587 0.87868 29.1213C1.44129 29.6839 2.20435 30 3 30H39C39.7957 30 40.5587 29.6839 41.1213 29.1213C41.6839 28.5587 42 27.7956 42 27V3C42 2.20435 41.6839 1.44129 41.1213 0.87868C40.5587 0.31607 39.7957 0 39 0ZM35.7 3L21 13.17L6.3 3H35.7ZM3 27V4.365L20.145 16.23C20.3961 16.4042 20.6944 16.4975 21 16.4975C21.3056 16.4975 21.6039 16.4042 21.855 16.23L39 4.365V27H3Z" fill="white"/>
</svg>
